G04 #@! TF.GenerationSoftware,KiCad,Pcbnew,9.0.4*
G04 #@! TF.CreationDate,2025-08-27T21:58:08-05:00*
G04 #@! TF.ProjectId,totem_0_3,746f7465-6d5f-4305-9f33-2e6b69636164,0.3*
G04 #@! TF.SameCoordinates,Original*
G04 #@! TF.FileFunction,Soldermask,Top*
G04 #@! TF.FilePolarity,Negative*
%FSLAX46Y46*%
G04 Gerber Fmt 4.6, Leading zero omitted, Abs format (unit mm)*
G04 Created by KiCad (PCBNEW 9.0.4) date 2025-08-27 21:58:08*
%MOMM*%
%LPD*%
G01*
G04 APERTURE LIST*
G04 Aperture macros list*
%AMRotRect*
0 Rectangle, with rotation*
0 The origin of the aperture is its center*
0 $1 length*
0 $2 width*
0 $3 Rotation angle, in degrees counterclockwise*
0 Add horizontal line*
21,1,$1,$2,0,0,$3*%
G04 Aperture macros list end*
%ADD10C,0.750000*%
%ADD11C,1.701800*%
%ADD12C,3.429000*%
%ADD13C,2.032000*%
%ADD14R,1.500000X1.800000*%
%ADD15C,0.500000*%
%ADD16RotRect,0.800000X0.800000X260.000000*%
%ADD17R,0.800000X0.800000*%
%ADD18C,5.600000*%
%ADD19C,1.200000*%
%ADD20O,1.000000X2.000000*%
%ADD21O,1.800000X2.750000*%
%ADD22C,1.397000*%
%ADD23RotRect,0.800000X0.800000X274.000000*%
%ADD24C,2.500000*%
%ADD25RotRect,0.800000X0.800000X280.000000*%
%ADD26RotRect,0.800000X0.800000X266.000000*%
%ADD27C,0.900000*%
%ADD28R,0.700000X1.000000*%
%ADD29R,1.000000X2.800000*%
%ADD30C,2.200000*%
%ADD31C,1.800000*%
%ADD32RotRect,1.800000X1.500000X170.000000*%
%ADD33R,1.800000X1.800000*%
%ADD34RotRect,0.800000X0.800000X240.000000*%
%ADD35RotRect,1.800000X1.500000X10.000000*%
%ADD36RotRect,0.800000X0.800000X285.000000*%
%ADD37RotRect,0.800000X0.800000X300.000000*%
%ADD38RotRect,0.800000X0.800000X255.000000*%
%ADD39C,3.000000*%
G04 APERTURE END LIST*
D10*
X89500000Y-99000000D02*
X89500000Y-101500000D01*
X88500000Y-103000000D02*
X90500000Y-103000000D01*
X210500000Y-99000000D02*
X210500000Y-103000000D01*
X212000000Y-101000000D02*
X212000000Y-103000000D01*
X209000000Y-101000000D02*
X209000000Y-103000000D01*
X209000000Y-101000000D02*
X212000000Y-101000000D01*
D11*
X44838180Y-114436364D03*
D12*
X50254623Y-113481299D03*
D11*
X55671066Y-112526234D03*
D13*
X51279147Y-119291665D03*
X45990447Y-118091809D03*
D14*
X162872435Y-67194348D03*
X162872435Y-70594348D03*
X137127565Y-74393348D03*
X137127565Y-77793348D03*
D11*
X92603165Y-117314348D03*
D12*
X98103165Y-117314348D03*
D11*
X103603165Y-117314348D03*
D13*
X98103165Y-123214348D03*
X93103165Y-121114348D03*
D11*
X115629205Y-99324989D03*
D12*
X121129205Y-99324989D03*
D11*
X126629205Y-99324989D03*
D13*
X121129205Y-105224989D03*
X116129205Y-103124989D03*
D11*
X59044212Y-64830392D03*
D12*
X64530814Y-64446731D03*
D11*
X70017416Y-64063070D03*
D13*
X64942377Y-70332359D03*
X59808068Y-68586257D03*
D15*
X156392565Y-107434348D03*
X156392565Y-108174348D03*
X156392565Y-108914348D03*
X156392565Y-109654348D03*
X156392565Y-110394348D03*
X156392565Y-111134348D03*
D16*
X267224308Y-112722163D03*
X268800000Y-113000001D03*
D11*
X79629229Y-71168188D03*
D12*
X85129229Y-71168188D03*
D11*
X90629229Y-71168188D03*
D13*
X85129229Y-77068188D03*
X80129229Y-74968188D03*
D11*
X173253285Y-99410067D03*
D12*
X178753285Y-99410067D03*
D11*
X184253285Y-99410067D03*
D13*
X178753285Y-105310067D03*
X173753285Y-103210067D03*
D11*
X227430087Y-97987331D03*
D12*
X232916689Y-98370992D03*
D11*
X238403291Y-98754653D03*
D13*
X232505126Y-104256620D03*
X227663794Y-101812953D03*
D17*
X120200000Y-103200000D03*
X121800000Y-103200000D03*
D18*
X139500000Y-112000000D03*
D19*
X161800000Y-51300000D03*
X161800000Y-58300000D03*
D20*
X164200000Y-52900000D03*
X164200000Y-55900000D03*
X164200000Y-59900000D03*
X159400000Y-60900000D03*
D21*
X266420000Y-51505000D03*
X263880000Y-51505000D03*
X261340000Y-51505000D03*
X258800000Y-51505000D03*
X256260000Y-51505000D03*
X253720000Y-51505000D03*
X251180000Y-51505000D03*
X251180000Y-67695000D03*
X253720000Y-67695000D03*
X256260000Y-67695000D03*
X258800000Y-67695000D03*
X261340000Y-67695000D03*
X263880000Y-67695000D03*
X266420000Y-67695000D03*
D22*
X267372000Y-58330000D03*
X267372000Y-60870000D03*
X264832000Y-58330000D03*
X264832000Y-60870000D03*
X259117000Y-55155000D03*
X261022000Y-55155000D03*
D23*
X66203898Y-102311610D03*
X67800000Y-102200000D03*
D11*
X25736122Y-110044413D03*
D12*
X31152565Y-109089348D03*
D11*
X36569008Y-108134283D03*
D13*
X32177089Y-114899714D03*
X26888389Y-113699858D03*
D24*
X213000000Y-99000000D03*
D14*
X166422435Y-103194348D03*
X166422435Y-106594348D03*
X159322435Y-81597348D03*
X159322435Y-84997348D03*
D17*
X178000000Y-69200000D03*
X179600000Y-69200000D03*
D11*
X250136122Y-79059283D03*
D12*
X255552565Y-80014348D03*
D11*
X260969008Y-80969413D03*
D13*
X254528041Y-85824714D03*
X249968663Y-82888377D03*
D24*
X92000000Y-99000000D03*
D11*
X112714973Y-118665843D03*
D12*
X118027565Y-120089348D03*
D11*
X123340157Y-121512853D03*
D13*
X116500533Y-125788310D03*
X112214423Y-122465771D03*
D17*
X177900000Y-103300000D03*
X179500000Y-103300000D03*
D16*
X251224308Y-100422162D03*
X252800000Y-100700000D03*
D11*
X79629229Y-54167968D03*
D12*
X85129229Y-54167968D03*
D11*
X90629229Y-54167968D03*
D13*
X85129229Y-60067968D03*
X80129229Y-57967968D03*
D14*
X162872435Y-88796348D03*
X162872435Y-92196348D03*
D25*
X47212154Y-100738919D03*
X48787846Y-100461081D03*
D17*
X195900000Y-83500000D03*
X197500000Y-83500000D03*
D11*
X263286122Y-108134283D03*
D12*
X268702565Y-109089348D03*
D11*
X274119008Y-110044413D03*
D13*
X267678041Y-114899714D03*
X263118663Y-111963377D03*
D26*
X233203898Y-85188390D03*
X234800000Y-85300000D03*
D18*
X34300000Y-121014348D03*
D17*
X84400000Y-58000000D03*
X86000000Y-58000000D03*
D14*
X166422435Y-67194348D03*
X166422435Y-70594348D03*
D11*
X191253205Y-96604887D03*
D12*
X196753205Y-96604887D03*
D11*
X202253205Y-96604887D03*
D13*
X196753205Y-102504887D03*
X191753205Y-100404887D03*
D14*
X140677565Y-67194348D03*
X140677565Y-70594348D03*
D27*
X63750000Y-51350000D03*
X66750000Y-51400000D03*
D28*
X67500000Y-53200000D03*
X64500000Y-53200000D03*
X63000000Y-53200000D03*
D29*
X69100000Y-51300000D03*
X61150000Y-51300000D03*
D30*
X180500000Y-54100000D03*
X173500000Y-54100000D03*
D31*
X179500000Y-51560000D03*
X174500000Y-51560000D03*
D18*
X265700000Y-121000000D03*
X243000000Y-52700000D03*
D11*
X176564973Y-121512853D03*
D12*
X181877565Y-120089348D03*
D11*
X187190157Y-118665843D03*
D13*
X183404597Y-125788310D03*
X178031448Y-125053961D03*
D32*
X267674173Y-98795202D03*
X264325827Y-98204798D03*
D11*
X158664063Y-130514348D03*
D12*
X163427203Y-127764348D03*
D11*
X168190343Y-125014348D03*
D13*
X166377203Y-132873898D03*
X160997076Y-133555245D03*
D14*
X162872435Y-81597348D03*
X162872435Y-84997348D03*
D11*
X228615963Y-81028523D03*
D12*
X234102565Y-81412184D03*
D11*
X239589167Y-81795845D03*
D13*
X233691002Y-87297812D03*
X228849670Y-84854145D03*
D11*
X173253245Y-65324549D03*
D12*
X178753245Y-65324549D03*
D11*
X184253245Y-65324549D03*
D13*
X178753245Y-71224549D03*
X173753245Y-69124549D03*
D11*
X115629205Y-65324549D03*
D12*
X121129205Y-65324549D03*
D11*
X126629205Y-65324549D03*
D13*
X121129205Y-71224549D03*
X116129205Y-69124549D03*
D11*
X97629241Y-62604447D03*
D12*
X103129241Y-62604447D03*
D11*
X108629241Y-62604447D03*
D13*
X103129241Y-68504447D03*
X98129241Y-66404447D03*
D14*
X137127565Y-103194348D03*
X137127565Y-106594348D03*
D27*
X233550000Y-51350000D03*
X236550000Y-51400000D03*
D28*
X237300000Y-53200000D03*
X234300000Y-53200000D03*
X232800000Y-53200000D03*
D29*
X238900000Y-51300000D03*
X230950000Y-51300000D03*
D11*
X60230088Y-81789200D03*
D12*
X65716690Y-81405539D03*
D11*
X71203292Y-81021878D03*
D13*
X66128253Y-87291167D03*
X60993944Y-85545065D03*
D11*
X191253205Y-79604667D03*
D12*
X196753205Y-79604667D03*
D11*
X202253205Y-79604667D03*
D13*
X196753205Y-85504667D03*
X191753205Y-83404667D03*
D17*
X196000000Y-100500000D03*
X197600000Y-100500000D03*
D11*
X97629241Y-79604667D03*
D12*
X103129241Y-79604667D03*
D11*
X108629241Y-79604667D03*
D13*
X103129241Y-85504667D03*
X98129241Y-83404667D03*
D33*
X70660000Y-119270000D03*
X73200000Y-116730000D03*
X75740000Y-119270000D03*
D11*
X247184063Y-95801232D03*
D12*
X252600506Y-96756297D03*
D11*
X258016949Y-97711362D03*
D13*
X251575982Y-102566663D03*
X247016604Y-99630326D03*
D14*
X137127565Y-88796348D03*
X137127565Y-92196348D03*
X137127565Y-81597348D03*
X137127565Y-84997348D03*
X159322435Y-103194348D03*
X159322435Y-106594348D03*
D26*
X231903898Y-102188390D03*
X233500000Y-102300000D03*
D14*
X162872435Y-103194348D03*
X162872435Y-106594348D03*
X133577565Y-74393348D03*
X133577565Y-77793348D03*
D11*
X61415963Y-98748009D03*
D12*
X66902565Y-98364348D03*
D11*
X72389167Y-97980687D03*
D13*
X67314128Y-104249976D03*
X62179819Y-102503874D03*
D17*
X177900000Y-86300000D03*
X179500000Y-86300000D03*
D14*
X159322435Y-67194348D03*
X159322435Y-70594348D03*
D11*
X131714425Y-125014348D03*
D12*
X136477565Y-127764348D03*
D11*
X141240705Y-130514348D03*
D13*
X133527565Y-132873898D03*
X130247438Y-128555245D03*
D17*
X102400000Y-83400000D03*
X104000000Y-83400000D03*
D18*
X57000000Y-52700000D03*
D11*
X209253165Y-71168188D03*
D12*
X214753165Y-71168188D03*
D11*
X220253165Y-71168188D03*
D13*
X214753165Y-77068188D03*
X209753165Y-74968188D03*
D15*
X143597565Y-111134348D03*
X143597565Y-110394348D03*
X143597565Y-109654348D03*
X143597565Y-108914348D03*
X143597565Y-108174348D03*
X143597565Y-107434348D03*
D14*
X162872435Y-95995348D03*
X162872435Y-99395348D03*
D24*
X208000000Y-99000000D03*
D14*
X159322435Y-88796348D03*
X159322435Y-92196348D03*
D11*
X38934066Y-80952466D03*
D12*
X44350509Y-79997401D03*
D11*
X49766952Y-79042336D03*
D13*
X45375033Y-85807767D03*
X40086333Y-84607911D03*
D14*
X166422435Y-95995348D03*
X166422435Y-99395348D03*
X133577565Y-88796348D03*
X133577565Y-92196348D03*
D25*
X50200000Y-117400000D03*
X51775692Y-117122162D03*
D17*
X214000000Y-58000000D03*
X215600000Y-58000000D03*
X120400000Y-69200000D03*
X122000000Y-69200000D03*
X84400000Y-75000000D03*
X86000000Y-75000000D03*
X97400000Y-121200000D03*
X99000000Y-121200000D03*
D34*
X134014360Y-130800000D03*
X135400000Y-131600000D03*
D11*
X209253165Y-54167968D03*
D12*
X214753165Y-54167968D03*
D11*
X220253165Y-54167968D03*
D13*
X214753165Y-60067968D03*
X209753165Y-57967968D03*
D30*
X126500000Y-53840000D03*
X119500000Y-53840000D03*
D31*
X125500000Y-51300000D03*
X120500000Y-51300000D03*
D11*
X229801838Y-64069714D03*
D12*
X235288440Y-64453375D03*
D11*
X240775042Y-64837036D03*
D13*
X234876877Y-70339003D03*
X230035545Y-67895336D03*
D11*
X244232008Y-112543180D03*
D12*
X249648451Y-113498245D03*
D11*
X255064894Y-114453310D03*
D13*
X248623927Y-119308611D03*
X244064549Y-116372274D03*
D11*
X196278165Y-117314348D03*
D12*
X201778165Y-117314348D03*
D11*
X207278165Y-117314348D03*
D13*
X201778165Y-123214348D03*
X196778165Y-121114348D03*
D35*
X32325827Y-98795202D03*
X35674173Y-98204798D03*
D36*
X182054518Y-124014110D03*
X183600000Y-123600000D03*
D14*
X140677565Y-81592348D03*
X140677565Y-84992348D03*
D23*
X64003898Y-68311610D03*
X65600000Y-68200000D03*
D17*
X102500000Y-100400000D03*
X104100000Y-100400000D03*
D14*
X133577565Y-81597348D03*
X133577565Y-84997348D03*
X159322435Y-95995348D03*
X159322435Y-99395348D03*
D19*
X138200000Y-51300000D03*
X138200000Y-58300000D03*
D20*
X140600000Y-52900000D03*
X140600000Y-55900000D03*
X140600000Y-59900000D03*
X135800000Y-60900000D03*
D11*
X209253165Y-88168408D03*
D12*
X214753165Y-88168408D03*
D11*
X220253165Y-88168408D03*
D13*
X214753165Y-94068408D03*
X209753165Y-91968408D03*
D17*
X214000000Y-75000000D03*
X215600000Y-75000000D03*
D37*
X164807180Y-131400000D03*
X166192820Y-130600000D03*
D14*
X140677565Y-95995348D03*
X140677565Y-99395348D03*
D15*
X156422565Y-65034348D03*
X156422565Y-65774348D03*
X156422565Y-66514348D03*
X156422565Y-67254348D03*
X156422565Y-67994348D03*
X156422565Y-68734348D03*
D23*
X65203898Y-85311610D03*
X66800000Y-85200000D03*
D16*
X248324308Y-117222162D03*
X249900000Y-117500000D03*
D26*
X234400000Y-68200000D03*
X235996102Y-68311610D03*
D11*
X97629241Y-96604887D03*
D12*
X103129241Y-96604887D03*
D11*
X108629241Y-96604887D03*
D13*
X103129241Y-102504887D03*
X98129241Y-100404887D03*
D14*
X140677565Y-88796348D03*
X140677565Y-92196348D03*
X133577565Y-103194348D03*
X133577565Y-106594348D03*
X137127565Y-67194348D03*
X137127565Y-70594348D03*
D17*
X195900000Y-66500000D03*
X197500000Y-66500000D03*
D14*
X133577565Y-67194348D03*
X133577565Y-70594348D03*
D17*
X214100000Y-92000000D03*
X215700000Y-92000000D03*
D16*
X254124308Y-83722162D03*
X255700000Y-84000000D03*
D38*
X116454518Y-123585890D03*
X118000000Y-124000000D03*
D24*
X87000000Y-99000000D03*
D14*
X137127565Y-95995348D03*
X137127565Y-99395348D03*
X166422435Y-81597348D03*
X166422435Y-84997348D03*
D17*
X120200000Y-86200000D03*
X121800000Y-86200000D03*
D33*
X222660000Y-119245000D03*
X225200000Y-116705000D03*
X227740000Y-119245000D03*
D14*
X140677565Y-103194348D03*
X140677565Y-106594348D03*
X159322435Y-74393348D03*
X159322435Y-77793348D03*
D25*
X44200000Y-84000000D03*
X45775692Y-83722162D03*
D18*
X160500000Y-112000000D03*
D17*
X84400000Y-92000000D03*
X86000000Y-92000000D03*
D14*
X140677565Y-74393348D03*
X140677565Y-77793348D03*
D11*
X115629205Y-82324769D03*
D12*
X121129205Y-82324769D03*
D11*
X126629205Y-82324769D03*
D13*
X121129205Y-88224769D03*
X116129205Y-86124769D03*
D11*
X79629229Y-88168408D03*
D12*
X85129229Y-88168408D03*
D11*
X90629229Y-88168408D03*
D13*
X85129229Y-94068408D03*
X80129229Y-91968408D03*
D11*
X41886122Y-97694413D03*
D12*
X47302565Y-96739348D03*
D11*
X52719008Y-95784283D03*
D13*
X48327089Y-102549714D03*
X43038389Y-101349858D03*
D18*
X131200000Y-52700000D03*
D14*
X166422435Y-74393348D03*
X166422435Y-77793348D03*
X166422435Y-88796348D03*
X166422435Y-92196348D03*
D17*
X201000000Y-121200000D03*
X202600000Y-121200000D03*
D11*
X191253205Y-62604447D03*
D12*
X196753205Y-62604447D03*
D11*
X202253205Y-62604447D03*
D13*
X196753205Y-68504447D03*
X191753205Y-66404447D03*
D11*
X173253285Y-82409847D03*
D12*
X178753285Y-82409847D03*
D11*
X184253285Y-82409847D03*
D13*
X178753285Y-88309847D03*
X173753285Y-86209847D03*
D17*
X102400000Y-66400000D03*
X104000000Y-66400000D03*
D25*
X31012154Y-113077838D03*
X32587846Y-112800000D03*
D14*
X133577565Y-95995348D03*
X133577565Y-99395348D03*
D15*
X143627565Y-68734348D03*
X143627565Y-67994348D03*
X143627565Y-67254348D03*
X143627565Y-66514348D03*
X143627565Y-65774348D03*
X143627565Y-65034348D03*
D21*
X33580000Y-67695000D03*
X36120000Y-67695000D03*
X38660000Y-67695000D03*
X41200000Y-67695000D03*
X43740000Y-67695000D03*
X46280000Y-67695000D03*
X48820000Y-67695000D03*
X48820000Y-51505000D03*
X46280000Y-51505000D03*
X43740000Y-51505000D03*
X41200000Y-51505000D03*
X38660000Y-51505000D03*
X36120000Y-51505000D03*
X33580000Y-51505000D03*
D22*
X32628000Y-60870000D03*
X32628000Y-58330000D03*
X35168000Y-60870000D03*
X35168000Y-58330000D03*
X40883000Y-64045000D03*
X38978000Y-64045000D03*
D18*
X168800000Y-52700000D03*
D14*
X162872435Y-74393348D03*
X162872435Y-77793348D03*
D39*
X274280006Y-106272170D03*
X269737994Y-103237352D03*
X201739000Y-92890000D03*
X196739000Y-90690000D03*
X238155390Y-94961527D03*
X233321034Y-92418103D03*
X126109000Y-95590000D03*
X121109000Y-93390000D03*
X123850423Y-117743662D03*
X119590195Y-114324530D03*
X183759000Y-61590000D03*
X178759000Y-59390000D03*
X51588678Y-92157829D03*
X46282614Y-90859493D03*
X70446965Y-77318103D03*
X65305681Y-75472245D03*
X183759000Y-78690000D03*
X178759000Y-76490000D03*
X255209000Y-110690000D03*
X250666988Y-107655182D03*
X219739000Y-50440000D03*
X214739000Y-48240000D03*
X126109000Y-78590000D03*
X121109000Y-76390000D03*
X90109000Y-67390000D03*
X85109000Y-65190000D03*
X219739000Y-84390000D03*
X214739000Y-82190000D03*
X201739000Y-58890000D03*
X196739000Y-56690000D03*
X108139000Y-58890000D03*
X103139000Y-56690000D03*
X69250284Y-60335859D03*
X64109000Y-58490001D03*
X90139000Y-84390000D03*
X85139000Y-82190000D03*
X35462032Y-104539168D03*
X30155968Y-103240832D03*
X258180006Y-93926334D03*
X253637994Y-90891516D03*
X108109000Y-75890000D03*
X103109000Y-73690000D03*
X90109000Y-50390000D03*
X85109000Y-48190000D03*
X48662032Y-75439168D03*
X43355968Y-74140832D03*
X142689128Y-126995256D03*
X139459000Y-122590000D03*
X185708032Y-115186339D03*
X180309000Y-114355397D03*
X261109000Y-77190000D03*
X256566988Y-74155182D03*
X183739000Y-95690000D03*
X178739000Y-93490000D03*
X71609000Y-94290000D03*
X66467716Y-92444142D03*
X54515064Y-108888336D03*
X49209000Y-107590000D03*
X239343356Y-77983424D03*
X234509000Y-75440000D03*
X126109000Y-61590000D03*
X121109000Y-59390000D03*
X103109000Y-113590000D03*
X98109000Y-111390000D03*
X240526178Y-61061712D03*
X235691822Y-58518288D03*
X201739000Y-75890000D03*
X196739000Y-73690000D03*
X108109000Y-92890000D03*
X103109000Y-90690000D03*
X206759000Y-113590000D03*
X201759000Y-111390000D03*
X219739000Y-67390000D03*
X214739000Y-65190000D03*
X165871031Y-121992628D03*
X160440903Y-122587372D03*
M02*
