M48
; DRILL file {KiCad 9.0.4} date 2025-08-27T21:58:12-0500
; FORMAT={-:-/ absolute / metric / decimal}
; #@! TF.CreationDate,2025-08-27T21:58:12-05:00
; #@! TF.GenerationSoftware,Kicad,Pcbnew,9.0.4
; #@! TF.FileFunction,NonPlated,1,2,NPTH
FMAT,2
METRIC
; #@! TA.AperFunction,NonPlated,NPTH,ComponentDrill
T1C0.500
; #@! TA.AperFunction,NonPlated,NPTH,ComponentDrill
T2C0.700
; #@! TA.AperFunction,NonPlated,NPTH,ComponentDrill
T3C1.702
; #@! TA.AperFunction,NonPlated,NPTH,ComponentDrill
T4C3.000
; #@! TA.AperFunction,NonPlated,NPTH,ComponentDrill
T5C3.429
%
G90
G05
T1
X143.598Y-107.434
X143.598Y-108.174
X143.598Y-108.914
X143.598Y-109.654
X143.598Y-110.394
X143.598Y-111.134
X143.628Y-65.034
X143.628Y-65.774
X143.628Y-66.514
X143.628Y-67.254
X143.628Y-67.994
X143.628Y-68.734
X156.393Y-107.434
X156.393Y-108.174
X156.393Y-108.914
X156.393Y-109.654
X156.393Y-110.394
X156.393Y-111.134
X156.423Y-65.034
X156.423Y-65.774
X156.423Y-66.514
X156.423Y-67.254
X156.423Y-67.994
X156.423Y-68.734
T2
X63.75Y-51.35
X66.75Y-51.4
X233.55Y-51.35
X236.55Y-51.4
T3
X25.736Y-110.044
X36.569Y-108.134
X38.934Y-80.952
X41.886Y-97.694
X44.838Y-114.436
X49.767Y-79.042
X52.719Y-95.784
X55.671Y-112.526
X59.044Y-64.83
X60.23Y-81.789
X61.416Y-98.748
X70.017Y-64.063
X71.203Y-81.022
X72.389Y-97.981
X79.629Y-54.168
X79.629Y-71.168
X79.629Y-88.168
X90.629Y-54.168
X90.629Y-71.168
X90.629Y-88.168
X92.603Y-117.314
X97.629Y-62.604
X97.629Y-79.605
X97.629Y-96.605
X103.603Y-117.314
X108.629Y-62.604
X108.629Y-79.605
X108.629Y-96.605
X112.715Y-118.666
X115.629Y-65.325
X115.629Y-82.325
X115.629Y-99.325
X123.34Y-121.513
X126.629Y-65.325
X126.629Y-82.325
X126.629Y-99.325
X131.714Y-125.014
X141.241Y-130.514
X158.664Y-130.514
X168.19Y-125.014
X173.253Y-65.325
X173.253Y-82.41
X173.253Y-99.41
X176.565Y-121.513
X184.253Y-65.325
X184.253Y-82.41
X184.253Y-99.41
X187.19Y-118.666
X191.253Y-62.604
X191.253Y-79.605
X191.253Y-96.605
X196.278Y-117.314
X202.253Y-62.604
X202.253Y-79.605
X202.253Y-96.605
X207.278Y-117.314
X209.253Y-54.168
X209.253Y-71.168
X209.253Y-88.168
X220.253Y-54.168
X220.253Y-71.168
X220.253Y-88.168
X227.43Y-97.987
X228.616Y-81.029
X229.802Y-64.07
X238.403Y-98.755
X239.589Y-81.796
X240.775Y-64.837
X244.232Y-112.543
X247.184Y-95.801
X250.136Y-79.059
X255.065Y-114.453
X258.017Y-97.711
X260.969Y-80.969
X263.286Y-108.134
X274.119Y-110.044
T4
X30.156Y-103.241
X35.462Y-104.539
X43.356Y-74.141
X46.283Y-90.859
X48.662Y-75.439
X49.209Y-107.59
X51.589Y-92.158
X54.515Y-108.888
X64.109Y-58.49
X65.306Y-75.472
X66.468Y-92.444
X69.25Y-60.336
X70.447Y-77.318
X71.609Y-94.29
X85.109Y-48.19
X85.109Y-65.19
X85.139Y-82.19
X90.109Y-50.39
X90.109Y-67.39
X90.139Y-84.39
X98.109Y-111.39
X103.109Y-73.69
X103.109Y-90.69
X103.109Y-113.59
X103.139Y-56.69
X108.109Y-75.89
X108.109Y-92.89
X108.139Y-58.89
X119.59Y-114.325
X121.109Y-59.39
X121.109Y-76.39
X121.109Y-93.39
X123.85Y-117.744
X126.109Y-61.59
X126.109Y-78.59
X126.109Y-95.59
X139.459Y-122.59
X142.689Y-126.995
X160.441Y-122.587
X165.871Y-121.993
X178.739Y-93.49
X178.759Y-59.39
X178.759Y-76.49
X180.309Y-114.355
X183.739Y-95.69
X183.759Y-61.59
X183.759Y-78.69
X185.708Y-115.186
X196.739Y-56.69
X196.739Y-73.69
X196.739Y-90.69
X201.739Y-58.89
X201.739Y-75.89
X201.739Y-92.89
X201.759Y-111.39
X206.759Y-113.59
X214.739Y-48.24
X214.739Y-65.19
X214.739Y-82.19
X219.739Y-50.44
X219.739Y-67.39
X219.739Y-84.39
X233.321Y-92.418
X234.509Y-75.44
X235.692Y-58.518
X238.155Y-94.962
X239.343Y-77.983
X240.526Y-61.062
X250.667Y-107.655
X253.638Y-90.892
X255.209Y-110.69
X256.567Y-74.155
X258.18Y-93.926
X261.109Y-77.19
X269.738Y-103.237
X274.28Y-106.272
T5
X31.153Y-109.089
X44.351Y-79.997
X47.303Y-96.739
X50.255Y-113.481
X64.531Y-64.447
X65.717Y-81.406
X66.903Y-98.364
X85.129Y-54.168
X85.129Y-71.168
X85.129Y-88.168
X98.103Y-117.314
X103.129Y-62.604
X103.129Y-79.605
X103.129Y-96.605
X118.028Y-120.089
X121.129Y-65.325
X121.129Y-82.325
X121.129Y-99.325
X136.478Y-127.764
X163.427Y-127.764
X178.753Y-65.325
X178.753Y-82.41
X178.753Y-99.41
X181.878Y-120.089
X196.753Y-62.604
X196.753Y-79.605
X196.753Y-96.605
X201.778Y-117.314
X214.753Y-54.168
X214.753Y-71.168
X214.753Y-88.168
X232.917Y-98.371
X234.103Y-81.412
X235.288Y-64.453
X249.648Y-113.498
X252.601Y-96.756
X255.553Y-80.014
X268.703Y-109.089
M30
