G04 #@! TF.GenerationSoftware,KiCad,Pcbnew,9.0.4*
G04 #@! TF.CreationDate,2025-08-27T21:58:08-05:00*
G04 #@! TF.ProjectId,totem_0_3,746f7465-6d5f-4305-9f33-2e6b69636164,0.3*
G04 #@! TF.SameCoordinates,Original*
G04 #@! TF.FileFunction,Paste,Bot*
G04 #@! TF.FilePolarity,Positive*
%FSLAX46Y46*%
G04 Gerber Fmt 4.6, Leading zero omitted, Abs format (unit mm)*
G04 Created by KiCad (PCBNEW 9.0.4) date 2025-08-27 21:58:08*
%MOMM*%
%LPD*%
G01*
G04 APERTURE LIST*
G04 Aperture macros list*
%AMRotRect*
0 Rectangle, with rotation*
0 The origin of the aperture is its center*
0 $1 length*
0 $2 width*
0 $3 Rotation angle, in degrees counterclockwise*
0 Add horizontal line*
21,1,$1,$2,0,0,$3*%
G04 Aperture macros list end*
%ADD10RotRect,2.600000X2.600000X170.000000*%
%ADD11R,2.600000X2.600000*%
%ADD12RotRect,2.600000X2.600000X176.000000*%
%ADD13RotRect,2.600000X2.600000X165.000000*%
%ADD14RotRect,2.600000X2.600000X190.000000*%
%ADD15RotRect,2.600000X2.600000X184.000000*%
%ADD16RotRect,2.600000X2.600000X150.000000*%
%ADD17RotRect,2.600000X2.600000X195.000000*%
%ADD18RotRect,2.600000X2.600000X210.000000*%
G04 APERTURE END LIST*
D10*
X277500328Y-106840000D03*
X266517672Y-102669522D03*
D11*
X205009000Y-92890000D03*
X193469000Y-90690000D03*
D12*
X241417424Y-95189630D03*
X230059000Y-92190000D03*
D11*
X129379000Y-95590000D03*
X117839000Y-93390000D03*
D13*
X127009000Y-118590000D03*
X116431618Y-113478192D03*
D11*
X187029000Y-61590000D03*
X175489000Y-59390000D03*
D14*
X54809000Y-91590000D03*
X43062292Y-91427322D03*
D15*
X73709000Y-77090000D03*
X62043646Y-75700348D03*
D11*
X187029000Y-78690000D03*
X175489000Y-76490000D03*
D10*
X258429322Y-111257830D03*
X247446666Y-107087352D03*
D11*
X223009000Y-50440000D03*
X211469000Y-48240000D03*
X129379000Y-78590000D03*
X117839000Y-76390000D03*
X93379000Y-67390000D03*
X81839000Y-65190000D03*
X223009000Y-84390000D03*
X211469000Y-82190000D03*
X205009000Y-58890000D03*
X193469000Y-56690000D03*
X111409000Y-58890000D03*
X99869000Y-56690000D03*
D15*
X72512319Y-60107756D03*
X60846965Y-58718104D03*
D11*
X93409000Y-84390000D03*
X81869000Y-82190000D03*
D14*
X38682354Y-103971339D03*
X26935646Y-103808661D03*
D10*
X261400328Y-94494164D03*
X250417672Y-90323686D03*
D11*
X111379000Y-75890000D03*
X99839000Y-73690000D03*
X93379000Y-50390000D03*
X81839000Y-48190000D03*
D14*
X51882354Y-74871339D03*
X40135646Y-74708661D03*
D16*
X145521031Y-128630256D03*
X136627097Y-120955000D03*
D17*
X188866609Y-114340001D03*
X177150423Y-115201735D03*
D10*
X264329322Y-77757830D03*
X253346666Y-73587352D03*
D11*
X187009000Y-95690000D03*
X175469000Y-93490000D03*
D15*
X74871035Y-94061897D03*
X63205681Y-92672245D03*
D14*
X57735386Y-108320507D03*
X45988678Y-108157829D03*
D12*
X242605390Y-78211527D03*
X231246966Y-75211897D03*
D11*
X129379000Y-61590000D03*
X117839000Y-59390000D03*
X106379000Y-113590000D03*
X94839000Y-111390000D03*
D12*
X243788212Y-61289815D03*
X232429788Y-58290185D03*
D11*
X205009000Y-75890000D03*
X193469000Y-73690000D03*
X111379000Y-92890000D03*
X99839000Y-90690000D03*
X210029000Y-113590000D03*
X198489000Y-111390000D03*
X223009000Y-67390000D03*
X211469000Y-65190000D03*
D18*
X168702934Y-120357628D03*
X157609000Y-124222372D03*
M02*
